<svg version="1.1" xmlns="http://www.w3.org/2000/svg" xmlns:xlink="http://www.w3.org/1999/xlink" width="47.98611" height="47.98611"><defs><linearGradient x1="0" y1="0" x2="0" y2="0" gradientUnits="userSpaceOnUse" id="color-1"><stop offset="0" stop-color="#000000" stop-opacity="0"></stop><stop offset="1" stop-color="#000000" stop-opacity="0"></stop></linearGradient><filter id="dropshadow-base"><feColorMatrix type="matrix" values="0 0 0 0 0  0 0 0 0 0  0 0 0 0 0  0 0 0 .8 0"></feColorMatrix> <feOffset dx="0" dy="1"></feOffset> <feGaussianBlur stdDeviation="1"></feGaussianBlur> <feComposite in="SourceGraphic"></feComposite></filter><filter id="dropshadow-banner" x="-10%" y="-10%" width="120%" height="130%"><feColorMatrix type="matrix" values="0 0 0 0 0  0 0 0 0 0  0 0 0 0 0  0 0 0 .4 0"></feColorMatrix> <feOffset dx="0" dy="1"></feOffset> <feGaussianBlur stdDeviation="0.5"></feGaussianBlur> <feComposite in="SourceGraphic"></feComposite></filter></defs><g transform="translate(-0.00694,-0.00694)"><g fill="none" fill-rule="nonzero" stroke="none" stroke-width="none" stroke-linecap="butt" stroke-linejoin="miter" stroke-miterlimit="10" stroke-dasharray="" stroke-dashoffset="0" font-family="none" font-weight="none" font-size="none" text-anchor="none" style="mix-blend-mode: normal"><path d="M7,43c-1.10457,0 -2,-0.89543 -2,-2v-34c0,-1.10457 0.89543,-2 2,-2h34c1.10457,0 2,0.89543 2,2v34c0,1.10457 -0.89543,2 -2,2z" id="base 1 13" fill-opacity="0" fill="#852da8" stroke-width="1"></path><path d="" fill="url(#color-1)" stroke-width="1"></path><path d="M34.2521,31.33537l-5.43679,-2.71811c-0.51278,-0.25667 -0.83148,-0.77229 -0.83148,-1.34596v-1.92419c0.13033,-0.15935 0.26749,-0.3409 0.4092,-0.54123c0.70514,-0.99596 1.27027,-2.1046 1.68118,-3.30032c0.80303,-0.36822 1.32434,-1.16214 1.32434,-2.0585v-2.27647c0,-0.54806 -0.20488,-1.07905 -0.56912,-1.49394v-3.02714c0.03187,-0.31302 0.15708,-2.17631 -1.1906,-3.7135c-1.16897,-1.33344 -3.06584,-2.00956 -5.63882,-2.00956c-2.57298,0 -4.46986,0.67611 -5.63882,2.00899c-1.34767,1.53719 -1.22247,3.40105 -1.1906,3.71407v3.02714c-0.36424,0.41489 -0.56912,0.94587 -0.56912,1.49394v2.27647c0,0.69262 0.31472,1.33857 0.85197,1.76939c0.52131,2.06419 1.61231,3.61959 1.99362,4.11871v1.88321c0,0.55091 -0.30049,1.05628 -0.78368,1.32035l-5.0771,2.76933c-1.65101,0.90091 -2.67599,2.62762 -2.67599,4.50799v1.84281c0,2.70104 8.56239,3.41471 13.08972,3.41471c4.52734,0 13.08972,-0.71367 13.08972,-3.41471v-1.73183c0,-1.95663 -1.08759,-3.71634 -2.83762,-4.59165zM35.95148,37.65884c0,0.77229 -4.2183,2.27647 -11.95148,2.27647c-7.73318,0 -11.95148,-1.50418 -11.95148,-2.27647v-1.84281c0,-1.4632 0.7979,-2.80803 2.0824,-3.50805l5.0771,-2.76933c0.84969,-0.46383 1.37727,-1.35336 1.37727,-2.3203v-2.28729l-0.1326,-0.15821c-0.01366,-0.0165 -1.40857,-1.70394 -1.94069,-4.02082l-0.05179,-0.22537l-0.19407,-0.12521c-0.32952,-0.21285 -0.52643,-0.56969 -0.52643,-0.95441v-2.27647c0,-0.31928 0.13545,-0.61692 0.38131,-0.83945l0.18781,-0.16903v-3.54447l-0.00512,-0.07455c-0.00171,-0.01537 -0.19521,-1.59296 0.91343,-2.85754c0.94303,-1.07563 2.5525,-1.62085 4.78287,-1.62085c2.22241,0 3.82846,0.54123 4.77263,1.60947c1.10807,1.25263 0.92482,2.85527 0.92368,2.86893l-0.00512,3.61902l0.18781,0.1696c0.24586,0.22196 0.38131,0.51961 0.38131,0.83888v2.27647c0,0.49684 -0.32554,0.93165 -0.80929,1.08076l-0.28342,0.08708l-0.09106,0.28171c-0.38074,1.18434 -0.92311,2.27818 -1.61288,3.25137c-0.16903,0.2396 -0.3335,0.45188 -0.47635,0.61408l-0.14171,0.16163v2.34761c0,1.00734 0.55944,1.91281 1.46036,2.36355l5.43679,2.71811c1.36247,0.68123 2.20875,2.05053 2.20875,3.57406z" fill="none" stroke-width="0"></path><path d="M37.08972,35.92701v1.73183c0,2.70104 -8.56239,3.41471 -13.08972,3.41471c-4.52734,0 -13.08972,-0.71367 -13.08972,-3.41471v-1.84281c0,-1.88037 1.02498,-3.60707 2.67599,-4.50799l5.0771,-2.76933c0.48318,-0.26407 0.78368,-0.76945 0.78368,-1.32035v-1.88321c-0.38131,-0.49912 -1.47231,-2.05452 -1.99362,-4.11871c-0.53725,-0.43082 -0.85197,-1.07677 -0.85197,-1.76939v-2.27647c0,-0.54806 0.20488,-1.07905 0.56912,-1.49394v-3.02714c-0.03187,-0.31302 -0.15708,-2.17688 1.1906,-3.71407c1.16897,-1.33288 3.06584,-2.00899 5.63882,-2.00899c2.57298,0 4.46986,0.67611 5.63882,2.00956c1.34767,1.53719 1.22247,3.40048 1.1906,3.7135v3.02714c0.36424,0.41489 0.56912,0.94587 0.56912,1.49394v2.27647c0,0.89636 -0.52131,1.69028 -1.32434,2.0585c-0.4109,1.19572 -0.97604,2.30436 -1.68118,3.30032c-0.14171,0.20033 -0.27887,0.38188 -0.4092,0.54123v1.92419c0,0.57367 0.31871,1.08929 0.83148,1.34596l5.43679,2.71811c1.75004,0.8753 2.83762,2.63502 2.83762,4.59165zM35.95148,35.92701c0,-1.52353 -0.84628,-2.89283 -2.20875,-3.57406l-5.43679,-2.71811c-0.90091,-0.45074 -1.46036,-1.35621 -1.46036,-2.36355v-2.34761l0.14171,-0.16163c0.14285,-0.1622 0.30732,-0.37448 0.47635,-0.61408c0.68977,-0.97319 1.23214,-2.06704 1.61288,-3.25137l0.09106,-0.28171l0.28342,-0.08708c0.48375,-0.14911 0.80929,-0.58392 0.80929,-1.08076v-2.27647c0,-0.31928 -0.13545,-0.61692 -0.38131,-0.83888l-0.18781,-0.1696l0.00512,-3.61902c0.00114,-0.01366 0.18439,-1.6163 -0.92368,-2.86893c-0.94417,-1.06824 -2.55022,-1.60947 -4.77263,-1.60947c-2.23037,0 -3.83984,0.54522 -4.78287,1.62085c-1.10864,1.26458 -0.91514,2.84218 -0.91343,2.85754l0.00512,0.07455v3.54447l-0.18781,0.16903c-0.24586,0.22253 -0.38131,0.52017 -0.38131,0.83945v2.27647c0,0.38472 0.19691,0.74156 0.52643,0.95441l0.19407,0.12521l0.05179,0.22537c0.53213,2.31688 1.92703,4.00432 1.94069,4.02082l0.1326,0.15821v2.28729c0,0.96693 -0.52757,1.85646 -1.37727,2.3203l-5.0771,2.76933c-1.2845,0.70002 -2.0824,2.04484 -2.0824,3.50805v1.84281c0,0.77229 4.2183,2.27647 11.95148,2.27647c7.73318,0 11.95148,-1.50418 11.95148,-2.27647z" fill="#ffffff" stroke-width="0"></path><path d="M2,24c0,-12.15026 9.84974,-22 22,-22c12.15026,0 22,9.84974 22,22c0,12.15026 -9.84974,22 -22,22c-12.15026,0 -22,-9.84974 -22,-22z" id="base 1 9 1" fill="none" stroke-width="1"></path><path d="M2,24c0,-12.15026 9.84974,-22 22,-22c12.15026,0 22,9.84974 22,22c0,12.15026 -9.84974,22 -22,22c-12.15026,0 -22,-9.84974 -22,-22z" id="base 1 5 1" fill="none" stroke-width="1"></path><path d="M2,24c0,-12.15026 9.84974,-22 22,-22c12.15026,0 22,9.84974 22,22c0,12.15026 -9.84974,22 -22,22c-12.15026,0 -22,-9.84974 -22,-22z" id="base 1 1 1" fill="none" stroke-width="1"></path><g id="Capa_1 1 1" fill="#000000" stroke-width="1" font-family="Roboto, sans-serif" font-weight="normal" font-size="14" text-anchor="start"><g></g><g></g><g></g><g></g><g></g><g></g><g></g><g></g><g></g><g></g><g></g><g></g><g></g><g></g><g></g><g></g></g><rect x="2" y="2" width="44" height="22" fill="none" stroke-width="1"></rect><path d="M2,24v-22h44v22z" fill="none" stroke-width="1"></path><path d="M2,24v-22h44v22z" fill="none" stroke-width="1"></path><path d="M2,24v-22h44v22z" fill="none" stroke-width="1"></path><path d="M2,24v-22h44v22z" fill="none" stroke-width="1"></path><g id="Capa_1 2 1" fill="#000000" stroke-width="1" font-family="Roboto, sans-serif" font-weight="normal" font-size="14" text-anchor="start"><g></g><g></g><g></g><g></g><g></g><g></g><g></g><g></g><g></g><g></g><g></g><g></g><g></g><g></g><g></g><g></g></g><rect x="2" y="2" width="44" height="22" fill="none" stroke-width="1"></rect><path d="M2,24v-22h44v22z" fill="none" stroke-width="1"></path><path d="M2,24v-22h44v22z" fill="none" stroke-width="1"></path><path d="M2,24v-22h44v22z" fill="none" stroke-width="1"></path><path d="M2,24v-22h44v22z" fill="none" stroke-width="1"></path><g id="Capa_1 3 1" fill="#000000" stroke-width="1" font-family="Roboto, sans-serif" font-weight="normal" font-size="14" text-anchor="start"><g></g><g></g><g></g><g></g><g></g><g></g><g></g><g></g><g></g><g></g><g></g><g></g><g></g><g></g><g></g></g><rect x="2" y="2" width="44" height="22" fill="none" stroke-width="1"></rect><path d="M2,24v-22h44v22z" fill="none" stroke-width="1"></path><path d="M2,24v-22h44v22z" fill="none" stroke-width="1"></path><path d="M2,24v-22h44v22z" fill="none" stroke-width="1"></path><path d="M2,24v-22h44v22z" fill="none" stroke-width="1"></path></g></g></svg>