<svg version="1.1" xmlns="http://www.w3.org/2000/svg" xmlns:xlink="http://www.w3.org/1999/xlink" width="47.98611" height="47.98611"><defs><linearGradient x1="0" y1="0" x2="0" y2="0" gradientUnits="userSpaceOnUse" id="color-1"><stop offset="0" stop-color="#000000" stop-opacity="0"></stop><stop offset="1" stop-color="#000000" stop-opacity="0"></stop></linearGradient><filter id="dropshadow-base"><feColorMatrix type="matrix" values="0 0 0 0 0  0 0 0 0 0  0 0 0 0 0  0 0 0 .8 0"></feColorMatrix> <feOffset dx="0" dy="1"></feOffset> <feGaussianBlur stdDeviation="1"></feGaussianBlur> <feComposite in="SourceGraphic"></feComposite></filter><filter id="dropshadow-banner" x="-10%" y="-10%" width="120%" height="130%"><feColorMatrix type="matrix" values="0 0 0 0 0  0 0 0 0 0  0 0 0 0 0  0 0 0 .4 0"></feColorMatrix> <feOffset dx="0" dy="1"></feOffset> <feGaussianBlur stdDeviation="0.5"></feGaussianBlur> <feComposite in="SourceGraphic"></feComposite></filter></defs><g transform="translate(-0.00694,-0.00694)"><g fill="none" fill-rule="nonzero" stroke="none" stroke-width="none" stroke-linecap="butt" stroke-linejoin="miter" stroke-miterlimit="10" stroke-dasharray="" stroke-dashoffset="0" font-family="none" font-weight="none" font-size="none" text-anchor="none" style="mix-blend-mode: normal"><path d="M7,43c-1.10457,0 -2,-0.89543 -2,-2v-34c0,-1.10457 0.89543,-2 2,-2h34c1.10457,0 2,0.89543 2,2v34c0,1.10457 -0.89543,2 -2,2z" id="base 1 5" fill-opacity="0" fill="#512da8" stroke-width="1"></path><path d="" fill="url(#color-1)" stroke-width="1"></path><path d="M20.71473,17.0123l5.1104,-7.40295c1.94728,-2.82099 5.82655,-3.53171 8.64759,-1.58421l3.89651,2.68992c1.36667,0.94334 2.28401,2.36246 2.5833,3.99566c0.29923,1.63331 -0.05552,3.28549 -0.99903,4.6521l-5.11018,7.40261c-0.39632,0.5742 -1.03418,0.88241 -1.68275,0.88241c-0.40006,0 -0.80419,-0.11728 -1.15849,-0.36184c-0.92839,-0.64082 -1.16139,-1.91285 -0.52058,-2.84124l5.11029,-7.40272c0.32367,-0.46857 0.44525,-1.03501 0.3427,-1.59498c-0.10266,-0.55997 -0.41719,-1.04656 -0.88593,-1.37007l-3.89662,-2.68992c-0.96711,-0.66793 -2.29729,-0.42427 -2.96494,0.54295l-5.1104,7.40295c-0.6407,0.92839 -1.9128,1.16162 -2.84124,0.52058c-0.9285,-0.64087 -1.1615,-1.9128 -0.52063,-2.84124zM27.28665,32.00199c0.64082,0.92839 0.40781,2.20042 -0.52058,2.84124l-7.40284,5.11052c-1.05019,0.72501 -2.26928,1.10236 -3.51871,1.10247c-0.37634,0 -0.75525,-0.03431 -1.13338,-0.10356c-1.63309,-0.29929 -3.05215,-1.21669 -3.99566,-2.58318l-2.69014,-3.89673c-1.94745,-2.8211 -1.23672,-6.70037 1.58427,-8.64775l7.40295,-5.11046c0.92828,-0.64115 2.20042,-0.40787 2.84124,0.52058c0.64082,0.92839 0.40781,2.20042 -0.52058,2.84124l-7.40284,5.1104c-0.96728,0.66765 -1.21105,1.99783 -0.54328,2.96505l2.69009,3.89668c0.3235,0.46857 0.8101,0.78326 1.37007,0.88582c0.55986,0.10289 1.12624,-0.01897 1.59487,-0.34259l7.40306,-5.11052c0.92828,-0.64104 2.20042,-0.40781 2.84146,0.5208zM31.11766,21.10404l-4.11651,5.48831c-0.11622,0.15483 -0.25365,0.29243 -0.40848,0.40848l-5.48853,4.11662c-0.36742,0.27569 -0.7976,0.40859 -1.224,0.40859c-0.62101,0 -1.23426,-0.28199 -1.63555,-0.81708c-0.6768,-0.90233 -0.49396,-2.18268 0.40848,-2.85949l5.25508,-3.94159l3.94126,-5.25486c0.67692,-0.90233 1.95715,-1.08523 2.8596,-0.40848c0.90244,0.67686 1.08534,1.9571 0.40865,2.85949zM32.59424,38.96632c0.3225,0.77674 -0.04564,1.66791 -0.82238,1.99041c-0.77662,0.3225 -1.6678,-0.04564 -1.9903,-0.82238c-0.09435,-0.22715 -0.12872,-0.47114 -0.11198,-0.70074l0.48743,-6.33596zM39.66721,32.70591c-0.24522,0.0188 -0.48788,-0.02449 -0.70085,-0.11209l-5.86856,-2.43711l6.33585,-0.48732c0.83856,-0.06456 1.57066,0.56287 1.6351,1.40131c0.06444,0.83867 -0.56298,1.57077 -1.40154,1.63521z" fill="none" stroke-width="0"></path><path d="M20.71473,17.0123l5.1104,-7.40295c1.94728,-2.82099 5.82655,-3.53171 8.64759,-1.58421l3.89651,2.68992c1.36667,0.94334 2.28401,2.36246 2.5833,3.99566c0.29923,1.63331 -0.05552,3.28549 -0.99903,4.6521l-5.11018,7.40261c-0.39632,0.5742 -1.03418,0.88241 -1.68275,0.88241c-0.40006,0 -0.80419,-0.11728 -1.15849,-0.36184c-0.92839,-0.64082 -1.16139,-1.91285 -0.52058,-2.84124l5.11029,-7.40272c0.32367,-0.46857 0.44525,-1.03501 0.3427,-1.59498c-0.10266,-0.55997 -0.41719,-1.04656 -0.88593,-1.37007l-3.89662,-2.68992c-0.96711,-0.66793 -2.29729,-0.42427 -2.96494,0.54295l-5.1104,7.40295c-0.6407,0.92839 -1.9128,1.16162 -2.84124,0.52058c-0.9285,-0.64087 -1.1615,-1.9128 -0.52063,-2.84124zM27.28665,32.00199c0.64082,0.92839 0.40781,2.20042 -0.52058,2.84124l-7.40284,5.11052c-1.05019,0.72501 -2.26928,1.10236 -3.51871,1.10247c-0.37634,0 -0.75525,-0.03431 -1.13338,-0.10356c-1.63309,-0.29929 -3.05215,-1.21669 -3.99566,-2.58318l-2.69014,-3.89673c-1.94745,-2.8211 -1.23672,-6.70037 1.58427,-8.64775l7.40295,-5.11046c0.92828,-0.64115 2.20042,-0.40787 2.84124,0.52058c0.64082,0.92839 0.40781,2.20042 -0.52058,2.84124l-7.40284,5.1104c-0.96728,0.66765 -1.21105,1.99783 -0.54328,2.96505l2.69009,3.89668c0.3235,0.46857 0.8101,0.78326 1.37007,0.88582c0.55986,0.10289 1.12624,-0.01897 1.59487,-0.34259l7.40306,-5.11052c0.92828,-0.64104 2.20042,-0.40781 2.84146,0.5208zM31.11766,21.10404l-4.11651,5.48831c-0.11622,0.15483 -0.25365,0.29243 -0.40848,0.40848l-5.48853,4.11662c-0.36742,0.27569 -0.7976,0.40859 -1.224,0.40859c-0.62101,0 -1.23426,-0.28199 -1.63555,-0.81708c-0.6768,-0.90233 -0.49396,-2.18268 0.40848,-2.85949l5.25508,-3.94159l3.94126,-5.25486c0.67692,-0.90233 1.95715,-1.08523 2.8596,-0.40848c0.90244,0.67686 1.08534,1.9571 0.40865,2.85949zM32.59424,38.96632c0.3225,0.77674 -0.04564,1.66791 -0.82238,1.99041c-0.77662,0.3225 -1.6678,-0.04564 -1.9903,-0.82238c-0.09435,-0.22715 -0.12872,-0.47114 -0.11198,-0.70074l0.48743,-6.33596zM39.66721,32.70591c-0.24522,0.0188 -0.48788,-0.02449 -0.70085,-0.11209l-5.86856,-2.43711l6.33585,-0.48732c0.83856,-0.06456 1.57066,0.56287 1.6351,1.40131c0.06444,0.83867 -0.56298,1.57077 -1.40154,1.63521z" fill="#ffffff" stroke-width="0"></path><path d="M2,24c0,-12.15026 9.84974,-22 22,-22c12.15026,0 22,9.84974 22,22c0,12.15026 -9.84974,22 -22,22c-12.15026,0 -22,-9.84974 -22,-22z" id="base 1 1 1" fill="none" stroke-width="1"></path><g id="Capa_1 1 1" fill="#000000" stroke-width="1" font-family="Roboto, sans-serif" font-weight="normal" font-size="14" text-anchor="start"><g><g></g></g><g></g><g></g><g></g><g></g><g></g><g></g><g></g><g></g><g></g><g></g><g></g><g></g><g></g><g></g><g></g></g><rect x="2" y="2" width="44" height="22" fill="none" stroke-width="1"></rect><path d="M2,24v-22h44v22z" fill="none" stroke-width="1"></path><path d="M2,24v-22h44v22z" fill="none" stroke-width="1"></path><path d="M2,24v-22h44v22z" fill="none" stroke-width="1"></path><path d="M2,24v-22h44v22z" fill="none" stroke-width="1"></path></g></g></svg>