<svg version="1.1" xmlns="http://www.w3.org/2000/svg" xmlns:xlink="http://www.w3.org/1999/xlink" width="47.98611" height="47.98611"><defs><linearGradient x1="0" y1="0" x2="0" y2="0" gradientUnits="userSpaceOnUse" id="color-1"><stop offset="0" stop-color="#000000" stop-opacity="0"></stop><stop offset="1" stop-color="#000000" stop-opacity="0"></stop></linearGradient><filter id="dropshadow-base"><feColorMatrix type="matrix" values="0 0 0 0 0  0 0 0 0 0  0 0 0 0 0  0 0 0 .8 0"></feColorMatrix> <feOffset dx="0" dy="1"></feOffset> <feGaussianBlur stdDeviation="1"></feGaussianBlur> <feComposite in="SourceGraphic"></feComposite></filter><filter id="dropshadow-banner" x="-10%" y="-10%" width="120%" height="130%"><feColorMatrix type="matrix" values="0 0 0 0 0  0 0 0 0 0  0 0 0 0 0  0 0 0 .4 0"></feColorMatrix> <feOffset dx="0" dy="1"></feOffset> <feGaussianBlur stdDeviation="0.5"></feGaussianBlur> <feComposite in="SourceGraphic"></feComposite></filter></defs><g transform="translate(-0.00694,-0.00694)"><g fill="none" fill-rule="nonzero" stroke="none" stroke-width="none" stroke-linecap="butt" stroke-linejoin="miter" stroke-miterlimit="10" stroke-dasharray="" stroke-dashoffset="0" font-family="none" font-weight="none" font-size="none" text-anchor="none" style="mix-blend-mode: normal"><path d="M7,43c-1.10457,0 -2,-0.89543 -2,-2v-34c0,-1.10457 0.89543,-2 2,-2h34c1.10457,0 2,0.89543 2,2v34c0,1.10457 -0.89543,2 -2,2z" id="base 1 5" fill-opacity="0" fill="#512da8" stroke-width="1"></path><path d="" fill="url(#color-1)" stroke-width="1"></path><path d="M35.12232,24.29152c0,2.79325 -1.27809,5.52585 -3.5068,7.49705c-1.85143,1.63751 -4.23767,2.63999 -6.64551,2.81602v4.52893h4.50501c0.53584,0 0.97001,0.43431 0.97001,0.97001c0,0.53571 -0.43418,0.97001 -0.97001,0.97001h-10.95043c-0.53584,0 -0.97001,-0.43431 -0.97001,-0.97001c0,-0.53571 0.43418,-0.97001 0.97001,-0.97001h4.50526v-4.52893c-2.40783,-0.1759 -4.79407,-1.17837 -6.64538,-2.81602c-2.22858,-1.97107 -3.5068,-4.70367 -3.5068,-7.49705c0,-0.53571 0.43418,-0.97001 0.97001,-0.97001c0.53584,0 0.97001,0.43431 0.97001,0.97001c0,2.23789 1.03947,4.44073 2.8521,6.04384c1.69559,1.4999 3.9252,2.35998 6.11704,2.35998h0.42616c2.19197,0 4.42158,-0.86021 6.11717,-2.35998c1.8125,-1.60311 2.8521,-3.80608 2.8521,-6.04384c0,-0.53571 0.43418,-0.97001 0.97001,-0.97001c0.53571,0 0.97001,0.43431 0.97001,0.97001zM16.50541,24.10192v-10.43218c0,-3.59216 3.40604,-6.74328 7.28895,-6.74328h0.41129c3.8829,0 7.28895,3.15112 7.28908,6.74328v10.43218c0,3.59242 -3.40617,6.74354 -7.28895,6.74354h-0.41129c-3.88303,0 -7.28908,-3.15125 -7.28908,-6.74354zM18.44557,13.66973v10.43218c0,2.51402 2.54959,4.80351 5.34892,4.80351h0.41129c2.79946,0 5.34892,-2.28949 5.34892,-4.80351v-10.43218c0,-2.51389 -2.54946,-4.80325 -5.34892,-4.80325h-0.41129c-2.79946,0 -5.34905,2.28936 -5.34905,4.80325z" fill="none" stroke-width="0"></path><path d="M35.12232,24.29152c0,2.79325 -1.27809,5.52585 -3.5068,7.49705c-1.85143,1.63751 -4.23767,2.63999 -6.64551,2.81602v4.52893h4.50501c0.53584,0 0.97001,0.43431 0.97001,0.97001c0,0.53571 -0.43418,0.97001 -0.97001,0.97001h-10.95043c-0.53584,0 -0.97001,-0.43431 -0.97001,-0.97001c0,-0.53571 0.43418,-0.97001 0.97001,-0.97001h4.50526v-4.52893c-2.40783,-0.1759 -4.79407,-1.17837 -6.64538,-2.81602c-2.22858,-1.97107 -3.5068,-4.70367 -3.5068,-7.49705c0,-0.53571 0.43418,-0.97001 0.97001,-0.97001c0.53584,0 0.97001,0.43431 0.97001,0.97001c0,2.23789 1.03947,4.44073 2.8521,6.04384c1.69559,1.4999 3.9252,2.35998 6.11704,2.35998h0.42616c2.19197,0 4.42158,-0.86021 6.11717,-2.35998c1.8125,-1.60311 2.8521,-3.80608 2.8521,-6.04384c0,-0.53571 0.43418,-0.97001 0.97001,-0.97001c0.53571,0 0.97001,0.43431 0.97001,0.97001zM16.50541,24.10192v-10.43218c0,-3.59216 3.40604,-6.74328 7.28895,-6.74328h0.41129c3.8829,0 7.28895,3.15112 7.28908,6.74328v10.43218c0,3.59242 -3.40617,6.74354 -7.28895,6.74354h-0.41129c-3.88303,0 -7.28908,-3.15125 -7.28908,-6.74354zM18.44557,13.66973v10.43218c0,2.51402 2.54959,4.80351 5.34892,4.80351h0.41129c2.79946,0 5.34892,-2.28949 5.34892,-4.80351v-10.43218c0,-2.51389 -2.54946,-4.80325 -5.34892,-4.80325h-0.41129c-2.79946,0 -5.34905,2.28936 -5.34905,4.80325z" fill="#ffffff" stroke-width="0"></path><path d="M2,24c0,-12.15026 9.84974,-22 22,-22c12.15026,0 22,9.84974 22,22c0,12.15026 -9.84974,22 -22,22c-12.15026,0 -22,-9.84974 -22,-22z" id="base 1 1 1" fill="none" stroke-width="1"></path><g id="Capa_1 1 1" fill="#000000" stroke-width="1" font-family="Roboto, sans-serif" font-weight="normal" font-size="14" text-anchor="start"><g></g><g></g><g></g><g></g><g></g><g></g><g></g><g></g><g></g><g></g><g></g><g></g><g></g><g></g><g></g><g></g></g><rect x="2" y="2" width="44" height="22" fill="none" stroke-width="1"></rect><path d="M2,24v-22h44v22z" fill="none" stroke-width="1"></path><path d="M2,24v-22h44v22z" fill="none" stroke-width="1"></path><path d="M2,24v-22h44v22z" fill="none" stroke-width="1"></path><path d="M2,24v-22h44v22z" fill="none" stroke-width="1"></path></g></g></svg>