<svg version="1.1" xmlns="http://www.w3.org/2000/svg" xmlns:xlink="http://www.w3.org/1999/xlink" width="47.98611" height="47.98611"><defs><linearGradient x1="0" y1="0" x2="0" y2="0" gradientUnits="userSpaceOnUse" id="color-1"><stop offset="0" stop-color="#000000" stop-opacity="0.3"></stop><stop offset="1" stop-color="#000000" stop-opacity="0"></stop></linearGradient><filter id="dropshadow-base"><feColorMatrix type="matrix" values="0 0 0 0 0  0 0 0 0 0  0 0 0 0 0  0 0 0 .8 0"></feColorMatrix> <feOffset dx="0" dy="1"></feOffset> <feGaussianBlur stdDeviation="1"></feGaussianBlur> <feComposite in="SourceGraphic"></feComposite></filter><filter id="dropshadow-banner" x="-10%" y="-10%" width="120%" height="130%"><feColorMatrix type="matrix" values="0 0 0 0 0  0 0 0 0 0  0 0 0 0 0  0 0 0 .4 0"></feColorMatrix> <feOffset dx="0" dy="1"></feOffset> <feGaussianBlur stdDeviation="0.5"></feGaussianBlur> <feComposite in="SourceGraphic"></feComposite></filter></defs><g transform="translate(-0.00694,-0.00694)"><g fill="none" fill-rule="nonzero" stroke="none" stroke-width="none" stroke-linecap="butt" stroke-linejoin="miter" stroke-miterlimit="10" stroke-dasharray="" stroke-dashoffset="0" font-family="none" font-weight="none" font-size="none" text-anchor="none" style="mix-blend-mode: normal"><path d="M7,43c-1.10457,0 -2,-0.89543 -2,-2v-34c0,-1.10457 0.89543,-2 2,-2h34c1.10457,0 2,0.89543 2,2v34c0,1.10457 -0.89543,2 -2,2z" id="base 1 5" fill-opacity="0" fill="#512da8" stroke-width="1"></path><path d="" fill="url(#color-1)" stroke-width="1"></path><path d="M23.79449,30.84546h0.41129c3.8829,0 7.28895,-3.15112 7.28895,-6.74354v-8.27603l6.09725,-6.09725c0.50505,-0.50505 0.50505,-1.32401 0,-1.82919c-0.50518,-0.50505 -1.32388,-0.50505 -1.82919,0l-4.42753,4.42766c-0.71458,-2.99954 -3.74012,-5.40065 -7.12948,-5.40065h-0.41129c-3.8829,0 -7.28895,3.15112 -7.28895,6.74328v10.43218c0,0.87056 0.2015,1.71473 0.55989,2.49488l-1.31793,1.31806c-0.60387,-1.13104 -0.92966,-2.37162 -0.92966,-3.62333c0,-0.53571 -0.43418,-0.97001 -0.97001,-0.97001c-0.53584,0 -0.97001,0.43431 -0.97001,0.97001c0,1.76478 0.51062,3.50499 1.44843,5.04446l-3.91821,3.91821c-0.50505,0.50505 -0.50505,1.32401 0,1.82919c0.25259,0.25259 0.58356,0.37882 0.91453,0.37882c0.3311,0 0.66194,-0.12623 0.91453,-0.37882l3.70701,-3.70701c0.14253,0.14059 0.28906,0.27833 0.44039,0.41219c1.85143,1.63764 4.2378,2.64012 6.64551,2.81602v4.52893h-4.03448c-0.53584,0 -0.97001,0.43431 -0.97001,0.97001c0,0.53571 0.43418,0.97001 0.97001,0.97001h10.95043c0.53584,0 0.97001,-0.43431 0.97001,-0.97001c0,-0.53571 -0.43418,-0.97001 -0.97001,-0.97001h-4.97579v-4.52893c2.40783,-0.17603 4.79407,-1.1785 6.64551,-2.81602c2.22858,-1.9712 3.5068,-4.70379 3.5068,-7.49705c0,-0.53571 -0.43418,-0.97001 -0.97001,-0.97001c-0.53584,0 -0.97001,0.43431 -0.97001,0.97001c0,2.23776 -1.03947,4.44073 -2.8521,6.04384c-1.69559,1.49977 -3.9252,2.35998 -6.11717,2.35998h-0.42616c-2.19184,0 -4.42146,-0.86021 -6.11717,-2.35998c-0.12158,-0.10748 -0.23914,-0.21832 -0.3536,-0.3311l1.279,-1.27913c1.34535,1.29102 3.20894,2.12032 5.19928,2.12032zM29.55469,24.10192c0,2.51402 -2.54959,4.80351 -5.34892,4.80351h-0.41129c-1.44856,0 -2.82921,-0.61395 -3.82535,-1.55396l9.58555,-9.58555zM18.44557,24.10192v-10.43218c0,-2.51389 2.54959,-4.80325 5.34892,-4.80325h0.41129c2.79946,0 5.34892,2.28936 5.34892,4.80325v0.4378l-10.9785,10.9785c-0.08459,-0.32088 -0.13063,-0.65043 -0.13063,-0.98411z" fill="none" stroke-width="0"></path><path d="M18.59521,28.72513l-1.279,1.27913c0.11446,0.11278 0.23203,0.22362 0.3536,0.3311c1.69571,1.49977 3.92533,2.35998 6.11717,2.35998h0.42616c2.19197,0 4.42158,-0.86021 6.11717,-2.35998c1.81263,-1.60311 2.8521,-3.80608 2.8521,-6.04384c0,-0.53571 0.43418,-0.97001 0.97001,-0.97001c0.53584,0 0.97001,0.43431 0.97001,0.97001c0,2.79325 -1.27822,5.52585 -3.5068,7.49705c-1.85143,1.63751 -4.23767,2.63999 -6.64551,2.81602v4.52893h4.97579c0.53584,0 0.97001,0.43431 0.97001,0.97001c0,0.53571 -0.43418,0.97001 -0.97001,0.97001h-10.95043c-0.53584,0 -0.97001,-0.43431 -0.97001,-0.97001c0,-0.53571 0.43418,-0.97001 0.97001,-0.97001h4.03448v-4.52893c-2.40771,-0.1759 -4.79407,-1.17837 -6.64551,-2.81602c-0.15132,-0.13386 -0.29786,-0.2716 -0.44039,-0.41219l-3.70701,3.70701c-0.25259,0.25259 -0.58343,0.37882 -0.91453,0.37882c-0.33097,0 -0.66194,-0.12623 -0.91453,-0.37882c-0.50505,-0.50518 -0.50505,-1.32413 0,-1.82919l3.91821,-3.91821c-0.93781,-1.53948 -1.44843,-3.27968 -1.44843,-5.04446c0,-0.53571 0.43418,-0.97001 0.97001,-0.97001c0.53584,0 0.97001,0.43431 0.97001,0.97001c0,1.25171 0.3258,2.49229 0.92966,3.62333l1.31793,-1.31806c-0.35839,-0.78015 -0.55989,-1.62432 -0.55989,-2.49488v-10.43218c0,-3.59216 3.40604,-6.74328 7.28895,-6.74328h0.41129c3.38936,0 6.4149,2.40111 7.12948,5.40065l4.42753,-4.42766c0.50531,-0.50505 1.32401,-0.50505 1.82919,0c0.50505,0.50518 0.50505,1.32413 0,1.82919l-6.09725,6.09725v8.27603c0,3.59242 -3.40604,6.74354 -7.28895,6.74354h-0.41129c-1.99034,0 -3.85393,-0.8293 -5.19928,-2.12032zM29.55469,17.76591l-9.58555,9.58555c0.99614,0.94001 2.37679,1.55396 3.82535,1.55396h0.41129c2.79933,0 5.34892,-2.28949 5.34892,-4.80351zM18.5762,25.08603l10.9785,-10.9785v-0.4378c0,-2.51389 -2.54946,-4.80325 -5.34892,-4.80325h-0.41129c-2.79933,0 -5.34892,2.28936 -5.34892,4.80325v10.43218c0,0.33369 0.04604,0.66323 0.13063,0.98411z" fill="#ffffff" stroke-width="0"></path><path d="M2,24c0,-12.15026 9.84974,-22 22,-22c12.15026,0 22,9.84974 22,22c0,12.15026 -9.84974,22 -22,22c-12.15026,0 -22,-9.84974 -22,-22z" id="base 1 1 1" fill="none" stroke-width="1"></path><g id="Capa_1 1 1" fill="#000000" stroke-width="1" font-family="Roboto, sans-serif" font-weight="normal" font-size="14" text-anchor="start"><g></g><g></g><g></g><g></g><g></g><g></g><g></g><g></g><g></g><g></g><g></g><g></g><g></g><g></g><g></g></g><rect x="2" y="2" width="44" height="22" fill="none" stroke-width="1"></rect><path d="M2,24v-22h44v22z" fill="none" stroke-width="1"></path><path d="M2,24v-22h44v22z" fill="none" stroke-width="1"></path><path d="M2,24v-22h44v22z" fill="none" stroke-width="1"></path><path d="M2,24v-22h44v22z" fill="none" stroke-width="1"></path></g></g></svg>