<svg version="1.1" xmlns="http://www.w3.org/2000/svg" xmlns:xlink="http://www.w3.org/1999/xlink" width="47.98611" height="47.98611"><defs><linearGradient x1="6.92645" y1="8.53212" x2="78.14424" y2="76.53857" gradientUnits="userSpaceOnUse" id="color-1"><stop offset="0" stop-color="#000000" stop-opacity="0"></stop><stop offset="1" stop-color="#000000" stop-opacity="0"></stop></linearGradient><filter id="dropshadow-base"><feColorMatrix type="matrix" values="0 0 0 0 0  0 0 0 0 0  0 0 0 0 0  0 0 0 .8 0"></feColorMatrix> <feOffset dx="0" dy="1"></feOffset> <feGaussianBlur stdDeviation="1"></feGaussianBlur> <feComposite in="SourceGraphic"></feComposite></filter><filter id="dropshadow-banner" x="-10%" y="-10%" width="120%" height="130%"><feColorMatrix type="matrix" values="0 0 0 0 0  0 0 0 0 0  0 0 0 0 0  0 0 0 .4 0"></feColorMatrix> <feOffset dx="0" dy="1"></feOffset> <feGaussianBlur stdDeviation="0.5"></feGaussianBlur> <feComposite in="SourceGraphic"></feComposite></filter></defs><g transform="translate(-0.00694,-0.00694)"><g fill="none" fill-rule="nonzero" stroke="none" stroke-width="none" stroke-linecap="butt" stroke-linejoin="miter" stroke-miterlimit="10" stroke-dasharray="" stroke-dashoffset="0" font-family="none" font-weight="none" font-size="none" text-anchor="none" style="mix-blend-mode: normal"><path d="M7,43c-1.10457,0 -2,-0.89543 -2,-2v-34c0,-1.10457 0.89543,-2 2,-2h34c1.10457,0 2,0.89543 2,2v34c0,1.10457 -0.89543,2 -2,2z" id="base 1 5" fill-opacity="0" fill="#000000" stroke-width="1"></path><path d="M11.46201,34.93233c-2.80084,-2.80084 -4.53556,-6.6678 -4.53556,-10.93226c0,-8.52907 6.9389,-15.46795 15.46782,-15.46795c1.7552,0 3.47798,0.29206 5.12031,0.86797c0.16022,0.05619 0.29915,0.14585 0.41169,0.25839l15.07374,15.07374v16.26778c0,1.10457 -0.89543,2 -2,2l-21.47032,0z" fill="url(#color-1)" stroke-width="1"></path><path d="M40.85161,25.69803l-2.74071,-3.62079c-0.37046,-0.48976 -0.91367,-0.77056 -1.49017,-0.77056c-0.5765,0 -1.11971,0.28095 -1.49017,0.77042l-2.74071,3.62094c-0.36491,0.48246 -0.27,1.16921 0.21232,1.53427c0.48246,0.36491 1.16906,0.26985 1.53427,-0.21217l1.49396,-1.97409c-0.53518,6.83418 -6.26717,12.2315 -13.23628,12.2315c-7.32102,0 -13.27731,-5.95629 -13.27731,-13.27746c0,-7.32132 5.95629,-13.27761 13.27746,-13.27761c1.50784,0 2.98661,0.25058 4.39559,0.74457c0.57081,0.20005 1.19578,-0.10046 1.39584,-0.67112c0.2002,-0.57066 -0.10032,-1.19564 -0.67112,-1.39584c-1.64232,-0.57592 -3.36511,-0.86796 -5.12031,-0.86796c-8.52893,0 -15.46781,6.93888 -15.46781,15.46796c0,8.52893 6.93888,15.46781 15.46781,15.46781c8.08969,0 14.74777,-6.24279 15.41232,-14.16353l1.29859,1.71577c0.21553,0.28431 0.54277,0.43427 0.8741,0.43413c0.23013,0 0.46231,-0.07228 0.66003,-0.22196c0.48231,-0.36506 0.57723,-1.05181 0.21232,-1.53427z" fill="none" stroke-width="0"></path><path d="M40.63929,27.2323c-0.19772,0.14967 -0.42989,0.22196 -0.66003,0.22196c-0.33133,0.00015 -0.65857,-0.14982 -0.8741,-0.43413l-1.29859,-1.71577c-0.66455,7.92074 -7.32263,14.16353 -15.41232,14.16353c-8.52893,0 -15.46781,-6.93888 -15.46781,-15.46781c0,-8.52908 6.93888,-15.46796 15.46781,-15.46796c1.7552,0 3.47798,0.29205 5.12031,0.86796c0.57081,0.2002 0.87132,0.82518 0.67112,1.39584c-0.20005,0.57066 -0.82503,0.87118 -1.39584,0.67112c-1.40898,-0.494 -2.88776,-0.74457 -4.39559,-0.74457c-7.32117,0 -13.27746,5.95629 -13.27746,13.27761c0,7.32117 5.95629,13.27746 13.27731,13.27746c6.96911,0 12.70111,-5.39731 13.23628,-12.2315l-1.49396,1.97409c-0.3652,0.48202 -1.05181,0.57708 -1.53427,0.21217c-0.48231,-0.36506 -0.57723,-1.05181 -0.21232,-1.53427l2.74071,-3.62094c0.37046,-0.48947 0.91367,-0.77042 1.49017,-0.77042c0.5765,0 1.11971,0.2808 1.49017,0.77056l2.74071,3.62079c0.36491,0.48246 0.27,1.16921 -0.21232,1.53427z" fill="#ffffff" stroke-width="0"></path><path d="M2,24c0,-12.15026 9.84974,-22 22,-22c12.15026,0 22,9.84974 22,22c0,12.15026 -9.84974,22 -22,22c-12.15026,0 -22,-9.84974 -22,-22z" id="base 1 1 1" fill="none" stroke-width="1"></path><g id="Capa_1 1 1" fill="#000000" stroke-width="1" font-family="Roboto, sans-serif" font-weight="normal" font-size="14" text-anchor="start"><g></g><g></g><g></g><g></g><g></g><g></g><g></g><g></g><g></g><g></g><g></g><g></g><g></g><g></g><g></g></g><rect x="2" y="2" width="44" height="22" fill="none" stroke-width="1"></rect><path d="M2,24v-22h44v22z" fill="none" stroke-width="1"></path><path d="M2,24v-22h44v22z" fill="none" stroke-width="1"></path><path d="M2,24v-22h44v22z" fill="none" stroke-width="1"></path><path d="M2,24v-22h44v22z" fill="none" stroke-width="1"></path></g></g></svg>