<svg version="1.1" xmlns="http://www.w3.org/2000/svg" xmlns:xlink="http://www.w3.org/1999/xlink" width="47.98611" height="47.98611"><defs><linearGradient x1="0" y1="0" x2="0" y2="0" gradientUnits="userSpaceOnUse" id="color-1"><stop offset="0" stop-color="#000000" stop-opacity="0"></stop><stop offset="1" stop-color="#000000" stop-opacity="0"></stop></linearGradient><filter id="dropshadow-base"><feColorMatrix type="matrix" values="0 0 0 0 0  0 0 0 0 0  0 0 0 0 0  0 0 0 .8 0"></feColorMatrix> <feOffset dx="0" dy="1"></feOffset> <feGaussianBlur stdDeviation="1"></feGaussianBlur> <feComposite in="SourceGraphic"></feComposite></filter><filter id="dropshadow-banner" x="-10%" y="-10%" width="120%" height="130%"><feColorMatrix type="matrix" values="0 0 0 0 0  0 0 0 0 0  0 0 0 0 0  0 0 0 .4 0"></feColorMatrix> <feOffset dx="0" dy="1"></feOffset> <feGaussianBlur stdDeviation="0.5"></feGaussianBlur> <feComposite in="SourceGraphic"></feComposite></filter></defs><g transform="translate(-0.00694,-0.00694)"><g fill="none" fill-rule="nonzero" stroke="none" stroke-width="none" stroke-linecap="butt" stroke-linejoin="miter" stroke-miterlimit="10" stroke-dasharray="" stroke-dashoffset="0" font-family="none" font-weight="none" font-size="none" text-anchor="none" style="mix-blend-mode: normal"><path d="M7,43c-1.10457,0 -2,-0.89543 -2,-2v-34c0,-1.10457 0.89543,-2 2,-2h34c1.10457,0 2,0.89543 2,2v34c0,1.10457 -0.89543,2 -2,2z" id="base 1 17" fill-opacity="0" fill="#852da8" stroke-width="1"></path><path d="" fill="url(#color-1)" stroke-width="1"></path><path d="M37.34841,6.92645c-2.05441,0 -3.72514,1.67072 -3.72514,3.72514c0,0.64259 0.16329,1.2473 0.45074,1.77565l-6.1024,6.1024c-0.84126,-0.655 -1.89423,-1.04863 -3.04033,-1.04863c-1.1461,0 -2.19907,0.39362 -3.04095,1.04801l-4.76135,-4.76135c0.21854,-0.36941 0.35203,-0.79408 0.35203,-1.25351c0,-1.36961 -1.11382,-2.48343 -2.48343,-2.48343c-1.36961,0 -2.48343,1.11382 -2.48343,2.48343c0,1.36961 1.11382,2.48343 2.48343,2.48343c0.45943,0 0.8841,-0.13348 1.25351,-0.35203l4.76135,4.76135c-0.65438,0.84188 -1.04801,1.89485 -1.04801,3.04095c0,1.1461 0.39362,2.19907 1.04801,3.04033l-7.86252,7.86315c-0.66183,-0.60037 -1.53662,-0.96978 -2.49833,-0.96978c-2.05441,0 -3.72514,1.67072 -3.72514,3.72514c0,2.05441 1.67072,3.72514 3.72514,3.72514c2.05441,0 3.72514,-1.67072 3.72514,-3.72514c0,-0.64259 -0.16329,-1.2473 -0.45074,-1.77565l7.96497,-7.96497c0.68667,0.53394 1.51489,0.89155 2.4201,1.00517v6.3079c-1.75889,0.29677 -3.10428,1.82656 -3.10428,3.66926c0,2.05441 1.67072,3.72514 3.72514,3.72514c2.05441,0 3.72514,-1.67072 3.72514,-3.72514c0,-1.84208 -1.3454,-3.37187 -3.10428,-3.66926v-6.3079c0.90521,-0.11362 1.73343,-0.47123 2.4201,-1.00517l4.76135,4.76135c-0.21916,0.37003 -0.35265,0.7947 -0.35265,1.25413c0,1.36961 1.11382,2.48343 2.48343,2.48343c1.36961,0 2.48343,-1.11382 2.48343,-2.48343c0,-1.36961 -1.11382,-2.48343 -2.48343,-2.48343c-0.45943,0 -0.8841,0.13348 -1.25351,0.35203l-4.76135,-4.76135c0.65438,-0.84188 1.04801,-1.89485 1.04801,-3.04095c0,-1.1461 -0.39362,-2.19907 -1.04801,-3.04033l6.00058,-6.00058c0.66121,0.60037 1.536,0.96978 2.49771,0.96978c2.05441,0 3.72514,-1.67072 3.72514,-3.72514c0,-2.05441 -1.67072,-3.72514 -3.72514,-3.72514zM13.75587,12.51416c0,-0.6848 0.55691,-1.24171 1.24171,-1.24171c0.6848,0 1.24171,0.55691 1.24171,1.24171c0,0.6848 -0.55691,1.24171 -1.24171,1.24171c-0.6848,0 -1.24171,-0.55691 -1.24171,-1.24171zM10.65159,38.59012c-1.36961,0 -2.48343,-1.11382 -2.48343,-2.48343c0,-1.36961 1.11382,-2.48343 2.48343,-2.48343c1.36961,0 2.48343,1.11382 2.48343,2.48343c0,1.36961 -1.11382,2.48343 -2.48343,2.48343zM27.41471,37.34841c0,1.36961 -1.11382,2.48343 -2.48343,2.48343c-1.36961,0 -2.48343,-1.11382 -2.48343,-2.48343c0,-1.36961 1.11382,-2.48343 2.48343,-2.48343c1.36961,0 2.48343,1.11382 2.48343,2.48343zM24.93128,26.173c-2.05441,0 -3.72514,-1.67072 -3.72514,-3.72514c0,-2.05441 1.67072,-3.72514 3.72514,-3.72514c2.05441,0 3.72514,1.67072 3.72514,3.72514c0,2.05441 -1.67072,3.72514 -3.72514,3.72514zM36.1067,32.38156c0,0.6848 -0.55691,1.24171 -1.24171,1.24171c-0.6848,0 -1.24171,-0.55691 -1.24171,-1.24171c0,-0.6848 0.55691,-1.24171 1.24171,-1.24171c0.6848,0 1.24171,0.55691 1.24171,1.24171zM37.34841,13.13501c-1.36961,0 -2.48343,-1.11382 -2.48343,-2.48343c0,-1.36961 1.11382,-2.48343 2.48343,-2.48343c1.36961,0 2.48343,1.11382 2.48343,2.48343c0,1.36961 -1.11382,2.48343 -2.48343,2.48343z" fill="none" stroke-width="0"></path><path d="M41.07355,10.65159c0,2.05441 -1.67072,3.72514 -3.72514,3.72514c-0.96171,0 -1.83649,-0.36941 -2.49771,-0.96978l-6.00058,6.00058c0.65438,0.84126 1.04801,1.89423 1.04801,3.04033c0,1.1461 -0.39362,2.19907 -1.04801,3.04095l4.76135,4.76135c0.36941,-0.21854 0.79408,-0.35203 1.25351,-0.35203c1.36961,0 2.48343,1.11382 2.48343,2.48343c0,1.36961 -1.11382,2.48343 -2.48343,2.48343c-1.36961,0 -2.48343,-1.11382 -2.48343,-2.48343c0,-0.45943 0.13348,-0.8841 0.35265,-1.25413l-4.76135,-4.76135c-0.68667,0.53394 -1.51489,0.89155 -2.4201,1.00517v6.3079c1.75889,0.29739 3.10428,1.82718 3.10428,3.66926c0,2.05441 -1.67072,3.72514 -3.72514,3.72514c-2.05441,0 -3.72514,-1.67072 -3.72514,-3.72514c0,-1.8427 1.3454,-3.37249 3.10428,-3.66926v-6.3079c-0.90521,-0.11362 -1.73343,-0.47123 -2.4201,-1.00517l-7.96497,7.96497c0.28746,0.52835 0.45074,1.13306 0.45074,1.77565c0,2.05441 -1.67072,3.72514 -3.72514,3.72514c-2.05441,0 -3.72514,-1.67072 -3.72514,-3.72514c0,-2.05441 1.67072,-3.72514 3.72514,-3.72514c0.96171,0 1.83649,0.36941 2.49833,0.96978l7.86252,-7.86315c-0.65438,-0.84126 -1.04801,-1.89423 -1.04801,-3.04033c0,-1.1461 0.39362,-2.19907 1.04801,-3.04095l-4.76135,-4.76135c-0.36941,0.21854 -0.79408,0.35203 -1.25351,0.35203c-1.36961,0 -2.48343,-1.11382 -2.48343,-2.48343c0,-1.36961 1.11382,-2.48343 2.48343,-2.48343c1.36961,0 2.48343,1.11382 2.48343,2.48343c0,0.45943 -0.13348,0.8841 -0.35203,1.25351l4.76135,4.76135c0.84188,-0.65438 1.89485,-1.04801 3.04095,-1.04801c1.1461,0 2.19907,0.39362 3.04033,1.04863l6.1024,-6.1024c-0.28746,-0.52835 -0.45074,-1.13306 -0.45074,-1.77565c0,-2.05441 1.67072,-3.72514 3.72514,-3.72514c2.05441,0 3.72514,1.67072 3.72514,3.72514zM14.99758,13.75587c0.6848,0 1.24171,-0.55691 1.24171,-1.24171c0,-0.6848 -0.55691,-1.24171 -1.24171,-1.24171c-0.6848,0 -1.24171,0.55691 -1.24171,1.24171c0,0.6848 0.55691,1.24171 1.24171,1.24171zM13.13501,36.1067c0,-1.36961 -1.11382,-2.48343 -2.48343,-2.48343c-1.36961,0 -2.48343,1.11382 -2.48343,2.48343c0,1.36961 1.11382,2.48343 2.48343,2.48343c1.36961,0 2.48343,-1.11382 2.48343,-2.48343zM24.93128,34.86499c-1.36961,0 -2.48343,1.11382 -2.48343,2.48343c0,1.36961 1.11382,2.48343 2.48343,2.48343c1.36961,0 2.48343,-1.11382 2.48343,-2.48343c0,-1.36961 -1.11382,-2.48343 -2.48343,-2.48343zM28.65642,22.44786c0,-2.05441 -1.67072,-3.72514 -3.72514,-3.72514c-2.05441,0 -3.72514,1.67072 -3.72514,3.72514c0,2.05441 1.67072,3.72514 3.72514,3.72514c2.05441,0 3.72514,-1.67072 3.72514,-3.72514zM34.86499,31.13985c-0.6848,0 -1.24171,0.55691 -1.24171,1.24171c0,0.6848 0.55691,1.24171 1.24171,1.24171c0.6848,0 1.24171,-0.55691 1.24171,-1.24171c0,-0.6848 -0.55691,-1.24171 -1.24171,-1.24171zM39.83184,10.65159c0,-1.36961 -1.11382,-2.48343 -2.48343,-2.48343c-1.36961,0 -2.48343,1.11382 -2.48343,2.48343c0,1.36961 1.11382,2.48343 2.48343,2.48343c1.36961,0 2.48343,-1.11382 2.48343,-2.48343z" fill="#ffffff" stroke-width="0"></path><path d="M2,24c0,-12.15026 9.84974,-22 22,-22c12.15026,0 22,9.84974 22,22c0,12.15026 -9.84974,22 -22,22c-12.15026,0 -22,-9.84974 -22,-22z" id="base 1 13 1" fill="none" stroke-width="1"></path><path d="M2,24c0,-12.15026 9.84974,-22 22,-22c12.15026,0 22,9.84974 22,22c0,12.15026 -9.84974,22 -22,22c-12.15026,0 -22,-9.84974 -22,-22z" id="base 1 9 1" fill="none" stroke-width="1"></path><path d="M2,24c0,-12.15026 9.84974,-22 22,-22c12.15026,0 22,9.84974 22,22c0,12.15026 -9.84974,22 -22,22c-12.15026,0 -22,-9.84974 -22,-22z" id="base 1 5 1" fill="none" stroke-width="1"></path><path d="M2,24c0,-12.15026 9.84974,-22 22,-22c12.15026,0 22,9.84974 22,22c0,12.15026 -9.84974,22 -22,22c-12.15026,0 -22,-9.84974 -22,-22z" id="base 1 1 1" fill="none" stroke-width="1"></path><g id="Capa_1 1 1" fill="#000000" stroke-width="1" font-family="Roboto, sans-serif" font-weight="normal" font-size="14" text-anchor="start"><g></g><g></g><g></g><g></g><g></g><g></g><g></g><g></g><g></g><g></g><g></g><g></g><g></g><g></g><g></g><g></g></g><rect x="2" y="2" width="44" height="22" fill="none" stroke-width="1"></rect><path d="M2,24v-22h44v22z" fill="none" stroke-width="1"></path><path d="M2,24v-22h44v22z" fill="none" stroke-width="1"></path><path d="M2,24v-22h44v22z" fill="none" stroke-width="1"></path><path d="M2,24v-22h44v22z" fill="none" stroke-width="1"></path><g id="Capa_1 2 1" fill="#000000" stroke-width="1" font-family="Roboto, sans-serif" font-weight="normal" font-size="14" text-anchor="start"><g></g><g></g><g></g><g></g><g></g><g></g><g></g><g></g><g></g><g></g><g></g><g></g><g></g><g></g><g></g><g></g></g><rect x="2" y="2" width="44" height="22" fill="none" stroke-width="1"></rect><path d="M2,24v-22h44v22z" fill="none" stroke-width="1"></path><path d="M2,24v-22h44v22z" fill="none" stroke-width="1"></path><path d="M2,24v-22h44v22z" fill="none" stroke-width="1"></path><path d="M2,24v-22h44v22z" fill="none" stroke-width="1"></path><g id="Capa_1 3 1" fill="#000000" stroke-width="1" font-family="Roboto, sans-serif" font-weight="normal" font-size="14" text-anchor="start"><g></g><g></g><g></g><g></g><g></g><g></g><g></g><g></g><g></g><g></g><g></g><g></g><g></g><g></g><g></g></g><rect x="2" y="2" width="44" height="22" fill="none" stroke-width="1"></rect><path d="M2,24v-22h44v22z" fill="none" stroke-width="1"></path><path d="M2,24v-22h44v22z" fill="none" stroke-width="1"></path><path d="M2,24v-22h44v22z" fill="none" stroke-width="1"></path><path d="M2,24v-22h44v22z" fill="none" stroke-width="1"></path><g id="Capa_1 4 1" fill="#000000" stroke-width="1" font-family="Roboto, sans-serif" font-weight="normal" font-size="14" text-anchor="start"><g></g><g></g><g></g><g></g><g></g><g></g><g></g><g></g><g></g><g></g><g></g><g></g><g></g><g></g><g></g></g><rect x="2" y="2" width="44" height="22" fill="none" stroke-width="1"></rect><path d="M2,24v-22h44v22z" fill="none" stroke-width="1"></path><path d="M2,24v-22h44v22z" fill="none" stroke-width="1"></path><path d="M2,24v-22h44v22z" fill="none" stroke-width="1"></path><path d="M2,24v-22h44v22z" fill="none" stroke-width="1"></path></g></g></svg>