<svg version="1.1" xmlns="http://www.w3.org/2000/svg" xmlns:xlink="http://www.w3.org/1999/xlink" width="47.98611" height="47.98611"><defs><linearGradient x1="0" y1="0" x2="0" y2="0" gradientUnits="userSpaceOnUse" id="color-1"><stop offset="0" stop-color="#000000" stop-opacity="0"></stop><stop offset="1" stop-color="#000000" stop-opacity="0"></stop></linearGradient><filter id="dropshadow-base"><feColorMatrix type="matrix" values="0 0 0 0 0  0 0 0 0 0  0 0 0 0 0  0 0 0 .8 0"></feColorMatrix> <feOffset dx="0" dy="1"></feOffset> <feGaussianBlur stdDeviation="1"></feGaussianBlur> <feComposite in="SourceGraphic"></feComposite></filter><filter id="dropshadow-banner" x="-10%" y="-10%" width="120%" height="130%"><feColorMatrix type="matrix" values="0 0 0 0 0  0 0 0 0 0  0 0 0 0 0  0 0 0 .4 0"></feColorMatrix> <feOffset dx="0" dy="1"></feOffset> <feGaussianBlur stdDeviation="0.5"></feGaussianBlur> <feComposite in="SourceGraphic"></feComposite></filter></defs><g transform="translate(-0.00694,-0.00694)"><g fill="none" fill-rule="nonzero" stroke="none" stroke-width="none" stroke-linecap="butt" stroke-linejoin="miter" stroke-miterlimit="10" stroke-dasharray="" stroke-dashoffset="0" font-family="none" font-weight="none" font-size="none" text-anchor="none" style="mix-blend-mode: normal"><path d="M7,43c-1.10457,0 -2,-0.89543 -2,-2v-34c0,-1.10457 0.89543,-2 2,-2h34c1.10457,0 2,0.89543 2,2v34c0,1.10457 -0.89543,2 -2,2z" id="base 1 5" fill-opacity="0" fill="#512da8" stroke-width="1"></path><path d="" fill="url(#color-1)" stroke-width="1"></path><path d="M13.82445,17.55143v11.41463c0,1.15728 -0.94163,2.09892 -2.09892,2.09892h-2.70017c-1.15728,0 -2.09892,-0.94163 -2.09892,-2.09892v-11.41463c0,-1.15728 0.94163,-2.09892 2.09892,-2.09892h2.70017c1.15728,0 2.09892,0.94151 2.09892,2.09892zM12.02538,17.55143c0,-0.16252 -0.13733,-0.29985 -0.29985,-0.29985h-2.70017c-0.16252,0 -0.29985,0.13733 -0.29985,0.29985v11.41463c0,0.16252 0.13733,0.29985 0.29985,0.29985h2.70017c0.16252,0 0.29985,-0.13733 0.29985,-0.29985zM41.07355,32.24049c0,4.72592 -3.84474,8.57066 -8.57054,8.57066c-1.96039,0 -3.7681,-0.66314 -5.21371,-1.77496l-10.76768,-6.99383c-0.80694,-0.52413 -1.41539,-1.64507 -1.41539,-2.60709v-12.35303c0,-0.96214 0.60845,-2.08297 1.41551,-2.60709l10.73842,-6.97488c0.54884,-0.35658 1.14277,-0.40959 1.62948,-0.14525c0.48671,0.26422 0.7658,0.79123 0.7658,1.44573v15.35724c0.89162,-0.31508 1.84957,-0.48827 2.84769,-0.48827c4.7258,0 8.57054,3.84474 8.57042,8.57078zM32.50325,25.46878c-1.52285,0 -2.92973,0.50554 -4.06206,1.35722l9.47631,9.47631c0.85156,-1.13234 1.3571,-2.53921 1.3571,-4.06194c0,-3.73391 -3.03767,-6.77159 -6.77135,-6.77159zM17.50163,30.53353l6.89284,4.47705c-0.29793,-0.86955 -0.462,-1.80087 -0.462,-2.77021c0,-3.01392 1.56507,-5.66744 3.9239,-7.19593v-15.78613l-10.35474,6.72553c-0.29541,0.1919 -0.59633,0.74625 -0.59633,1.09839v12.35303c0,0.35214 0.30104,0.90649 0.59633,1.09827zM32.50325,39.01207c1.56375,0 3.00421,-0.5342 4.15178,-1.42786l-9.49562,-9.4955c-0.89366,1.14757 -1.42786,2.58802 -1.42786,4.15178c0,2.15853 1.01648,4.08293 2.5945,5.32381l0.91981,0.59741c0.02531,0.01643 0.04953,0.03406 0.07256,0.05253c0.94991,0.50842 2.03403,0.79771 3.18484,0.79783z" fill="none" stroke-width="0"></path><path d="M13.82445,17.55143v11.41463c0,1.15728 -0.94163,2.09892 -2.09892,2.09892h-2.70017c-1.15728,0 -2.09892,-0.94163 -2.09892,-2.09892v-11.41463c0,-1.15728 0.94163,-2.09892 2.09892,-2.09892h2.70017c1.15728,0 2.09892,0.94151 2.09892,2.09892zM12.02538,17.55143c0,-0.16252 -0.13733,-0.29985 -0.29985,-0.29985h-2.70017c-0.16252,0 -0.29985,0.13733 -0.29985,0.29985v11.41463c0,0.16252 0.13733,0.29985 0.29985,0.29985h2.70017c0.16252,0 0.29985,-0.13733 0.29985,-0.29985zM41.07355,32.24049c0,4.72592 -3.84474,8.57066 -8.57054,8.57066c-1.96039,0 -3.7681,-0.66314 -5.21371,-1.77496l-10.76768,-6.99383c-0.80694,-0.52413 -1.41539,-1.64507 -1.41539,-2.60709v-12.35303c0,-0.96214 0.60845,-2.08297 1.41551,-2.60709l10.73842,-6.97488c0.54884,-0.35658 1.14277,-0.40959 1.62948,-0.14525c0.48671,0.26422 0.7658,0.79123 0.7658,1.44573v15.35724c0.89162,-0.31508 1.84957,-0.48827 2.84769,-0.48827c4.7258,0 8.57054,3.84474 8.57042,8.57078zM32.50325,25.46878c-1.52285,0 -2.92973,0.50554 -4.06206,1.35722l9.47631,9.47631c0.85156,-1.13234 1.3571,-2.53921 1.3571,-4.06194c0,-3.73391 -3.03767,-6.77159 -6.77135,-6.77159zM17.50163,30.53353l6.89284,4.47705c-0.29793,-0.86955 -0.462,-1.80087 -0.462,-2.77021c0,-3.01392 1.56507,-5.66744 3.9239,-7.19593v-15.78613l-10.35474,6.72553c-0.29541,0.1919 -0.59633,0.74625 -0.59633,1.09839v12.35303c0,0.35214 0.30104,0.90649 0.59633,1.09827zM32.50325,39.01207c1.56375,0 3.00421,-0.5342 4.15178,-1.42786l-9.49562,-9.4955c-0.89366,1.14757 -1.42786,2.58802 -1.42786,4.15178c0,2.15853 1.01648,4.08293 2.5945,5.32381l0.91981,0.59741c0.02531,0.01643 0.04953,0.03406 0.07256,0.05253c0.94991,0.50842 2.03403,0.79771 3.18484,0.79783z" fill="#ffffff" stroke-width="0"></path><path d="M2,24c0,-12.15026 9.84974,-22 22,-22c12.15026,0 22,9.84974 22,22c0,12.15026 -9.84974,22 -22,22c-12.15026,0 -22,-9.84974 -22,-22z" id="base 1 1 1" fill="none" stroke-width="1"></path><g id="Capa_1 1 1" fill="#000000" stroke-width="1" font-family="Roboto, sans-serif" font-weight="normal" font-size="14" text-anchor="start"><g></g><g></g><g></g><g></g><g></g><g></g><g></g><g></g><g></g><g></g><g></g><g></g><g></g><g></g><g></g><g></g></g><rect x="2" y="2" width="44" height="22" fill="none" stroke-width="1"></rect><path d="M2,24v-22h44v22z" fill="none" stroke-width="1"></path><path d="M2,24v-22h44v22z" fill="none" stroke-width="1"></path><path d="M2,24v-22h44v22z" fill="none" stroke-width="1"></path><path d="M2,24v-22h44v22z" fill="none" stroke-width="1"></path></g></g></svg>