<svg version="1.1" xmlns="http://www.w3.org/2000/svg" xmlns:xlink="http://www.w3.org/1999/xlink" width="47.98611" height="47.98611"><defs><linearGradient x1="0" y1="0" x2="0" y2="0" gradientUnits="userSpaceOnUse" id="color-1"><stop offset="0.21" stop-color="#000000" stop-opacity="0"></stop><stop offset="1" stop-color="#000000" stop-opacity="0"></stop></linearGradient><filter id="dropshadow-base"><feColorMatrix type="matrix" values="0 0 0 0 0  0 0 0 0 0  0 0 0 0 0  0 0 0 .8 0"></feColorMatrix> <feOffset dx="0" dy="1"></feOffset> <feGaussianBlur stdDeviation="1"></feGaussianBlur> <feComposite in="SourceGraphic"></feComposite></filter><filter id="dropshadow-banner" x="-10%" y="-10%" width="120%" height="130%"><feColorMatrix type="matrix" values="0 0 0 0 0  0 0 0 0 0  0 0 0 0 0  0 0 0 .4 0"></feColorMatrix> <feOffset dx="0" dy="1"></feOffset> <feGaussianBlur stdDeviation="0.5"></feGaussianBlur> <feComposite in="SourceGraphic"></feComposite></filter></defs><g transform="translate(-0.00694,-0.00694)"><g fill="none" fill-rule="nonzero" stroke="none" stroke-width="none" stroke-linecap="butt" stroke-linejoin="miter" stroke-miterlimit="10" stroke-dasharray="" stroke-dashoffset="0" font-family="none" font-weight="none" font-size="none" text-anchor="none" style="mix-blend-mode: normal"><path d="M2,24c0,-12.15026 9.84974,-22 22,-22c12.15026,0 22,9.84974 22,22c0,12.15026 -9.84974,22 -22,22c-12.15026,0 -22,-9.84974 -22,-22z" id="base 1 9" fill-opacity="0" fill="#085dad" stroke-width="1"></path><path d="" fill="url(#color-1)" stroke-width="1"></path><path transform="translate(-16.97652,-16.97652) scale(1.70735,1.70735)" d="M30.9609,22.87497c-0.00328,0.18133 -0.15129,0.32613 -0.33192,0.32613c-0.00203,0 -0.00406,-0.00004 -0.00609,-0.00004l-0.88989,-0.01598c-0.18336,-0.00332 -0.32934,-0.15461 -0.32606,-0.33801c0.00328,-0.18133 0.15129,-0.32613 0.33192,-0.32613c0.00203,0 0.00406,0.00004 0.00609,0.00004l0.88989,0.01598c0.18336,0.00332 0.32934,0.15461 0.32606,0.33801zM33.92157,27.49128c0,0.18344 -0.14867,0.33211 -0.33211,0.33211c-0.30004,0 -0.43449,0.13023 -0.63801,0.32731c-0.23664,0.22922 -0.5311,0.51442 -1.10012,0.51442c-0.56903,0 -0.86348,-0.2852 -1.10016,-0.51438c-0.20352,-0.19711 -0.33797,-0.32735 -0.63809,-0.32735c-0.30008,0 -0.43449,0.1302 -0.63805,0.32735c-0.23664,0.22918 -0.53114,0.51438 -1.10016,0.51438c-0.28633,0 -0.53504,-0.07359 -0.76039,-0.225c-0.15227,-0.10231 -0.19274,-0.30863 -0.09047,-0.46086c0.10231,-0.15223 0.30863,-0.1927 0.46086,-0.09047c0.0777,0.05219 0.19227,0.11211 0.39,0.11211c0.30008,0 0.43449,-0.1302 0.63805,-0.32735c0.23664,-0.22918 0.53114,-0.51438 1.10016,-0.51438c0.56903,0 0.86352,0.28524 1.1002,0.51442c0.20356,0.19707 0.33797,0.32731 0.63805,0.32731c0.30004,0 0.43449,-0.13023 0.63801,-0.32731c0.23664,-0.22922 0.5311,-0.51442 1.10012,-0.51442c0.18344,0 0.33207,0.14867 0.33211,0.33211zM27.33647,27.68554c-0.06828,0.17024 -0.26176,0.25289 -0.43184,0.18461c-0.07844,-0.03145 -0.16613,-0.04676 -0.26797,-0.04676c-0.30004,0 -0.43445,0.13023 -0.63797,0.32731c-0.23664,0.22922 -0.53106,0.51442 -1.10004,0.51442c-0.56903,0 -0.86348,-0.2852 -1.10016,-0.51438c-0.20352,-0.19711 -0.33797,-0.32735 -0.63809,-0.32735c-0.30012,0 -0.43457,0.1302 -0.63809,0.32735c-0.23668,0.22918 -0.53114,0.51438 -1.10016,0.51438c-0.56903,0 -0.86352,-0.2852 -1.1002,-0.51438c-0.20352,-0.19711 -0.33797,-0.32735 -0.63809,-0.32735c-0.30016,0 -0.43461,0.1302 -0.63813,0.32735c-0.23664,0.22918 -0.53114,0.51438 -1.10016,0.51438c-0.56906,0 -0.8636,-0.2852 -1.10028,-0.51438c-0.20356,-0.19711 -0.33805,-0.32735 -0.63824,-0.32735c-0.30024,0 -0.43469,0.1302 -0.63824,0.32735c-0.23664,0.22918 -0.53121,0.51438 -1.10028,0.51438c-0.18344,0 -0.33211,-0.14867 -0.33211,-0.33211c0,-0.18344 0.14871,-0.33211 0.33211,-0.33211c0.30016,0 0.43469,-0.1302 0.63824,-0.32735c0.23668,-0.22918 0.53117,-0.51438 1.10024,-0.51438c0.56906,0 0.8636,0.2852 1.10028,0.51438c0.20356,0.19711 0.33809,0.32735 0.63824,0.32735c0.30012,0 0.43457,-0.1302 0.63809,-0.32735c0.23668,-0.22918 0.53117,-0.51438 1.1002,-0.51438c0.56903,0 0.86352,0.2852 1.1002,0.51438c0.20356,0.19711 0.33805,0.32735 0.63817,0.32735c0.30008,0 0.43453,-0.13023 0.63805,-0.32731c0.23664,-0.22922 0.53117,-0.51442 1.10016,-0.51442c0.56899,0 0.86348,0.28524 1.10016,0.51442c0.20356,0.19707 0.33797,0.32731 0.63805,0.32731c0.3,0 0.43442,-0.13023 0.63793,-0.32731c0.23664,-0.22918 0.5311,-0.51442 1.10008,-0.51442c0.18816,0 0.35668,0.0309 0.51524,0.09449c0.17024,0.06828 0.25285,0.26164 0.18461,0.43188zM31.07566,25.49713c0.04871,0.04379 0.09422,0.08781 0.1377,0.12992c0.20356,0.19707 0.33797,0.32731 0.63805,0.32731c0.30004,0 0.43449,-0.13023 0.63801,-0.32731c0.23664,-0.22922 0.5311,-0.51442 1.10012,-0.51442c0.18348,0 0.33211,0.14867 0.33211,0.33211c0,0.18344 -0.14867,0.33211 -0.33211,0.33211c-0.30004,0 -0.43449,0.13023 -0.63801,0.32731c-0.23664,0.22922 -0.5311,0.51442 -1.10012,0.51442c-0.56903,0 -0.86348,-0.2852 -1.10016,-0.51438c-0.20356,-0.19711 -0.33801,-0.32735 -0.63813,-0.32735c-0.30008,0 -0.43449,0.13023 -0.63805,0.32731c-0.23664,0.22922 -0.53114,0.51442 -1.10016,0.51442c-0.56903,0 -0.86352,-0.28524 -1.10016,-0.51442c-0.20356,-0.19707 -0.33797,-0.32731 -0.63805,-0.32731c-0.30004,0 -0.43445,0.13023 -0.63797,0.32731c-0.23664,0.22922 -0.53106,0.51442 -1.10004,0.51442c-0.56903,0 -0.86352,-0.2852 -1.10016,-0.51438c-0.20352,-0.19711 -0.33797,-0.32735 -0.63809,-0.32735c-0.30012,0 -0.43457,0.1302 -0.63809,0.32735c-0.23668,0.22918 -0.53114,0.51438 -1.10016,0.51438c-0.51703,0 -0.80629,-0.23399 -1.0368,-0.45336c-0.13289,-0.12641 -0.13805,-0.33664 -0.01164,-0.46949c0.12645,-0.13289 0.33664,-0.13805 0.46949,-0.01164c0.16637,0.15824 0.30527,0.27031 0.57895,0.27031c0.30008,0 0.43453,-0.13023 0.63805,-0.32731c0.23664,-0.22922 0.53117,-0.51442 1.10016,-0.51442c0.56899,0 0.86348,0.28524 1.10016,0.51442c0.20356,0.19707 0.33797,0.32731 0.63805,0.32731c0.3,0 0.43442,-0.13023 0.63793,-0.32731c0.23664,-0.22918 0.5311,-0.51442 1.10008,-0.51442c0.56903,0 0.86352,0.28524 1.10016,0.51442c0.20356,0.19707 0.33797,0.32731 0.63805,0.32731c0.30008,0 0.43449,-0.13023 0.63805,-0.32731c0.23664,-0.22922 0.53114,-0.51442 1.10016,-0.51442c0.12895,0 0.24317,0.0152 0.34641,0.04051c1.11977,-0.94575 2.00059,-2.34462 2.27325,-2.8031c-1.77614,-0.33098 -5.76514,-0.53781 -14.13627,0.92043c-0.1809,0.03125 -0.35274,-0.08949 -0.38418,-0.2702c-0.03148,-0.1807 0.08949,-0.3527 0.2702,-0.38418c1.02024,-0.17774 2.11442,-0.35465 3.23849,-0.51539c-0.18652,-0.80172 -0.44555,-1.42895 -0.58817,-1.74044c-0.46457,0.08832 -0.94668,0.1925 -1.44442,0.31262c-1.33665,0.32258 -2.44071,0.67657 -2.92353,0.83856l0.2291,1.37391c0.11121,-0.02086 0.22492,-0.04199 0.3411,-0.06344c0.18024,-0.03332 0.3536,0.08594 0.38684,0.26633c0.03324,0.18035 -0.08598,0.3536 -0.26633,0.38684c-1.24872,0.23035 -2.21376,0.42961 -2.70111,0.53301l0.45965,1.51692c0.22063,-0.20379 0.50629,-0.41242 0.99301,-0.41242c0.56906,0 0.8636,0.2852 1.10028,0.51438c0.20356,0.19711 0.33809,0.32735 0.63824,0.32735c0.30012,0 0.43457,-0.1302 0.63809,-0.32735c0.23668,-0.22918 0.53117,-0.51438 1.1002,-0.51438c0.18344,0 0.33211,0.14867 0.33211,0.33211c0,0.18344 -0.14871,0.33211 -0.33211,0.33211c-0.30012,0 -0.43457,0.1302 -0.63809,0.32735c-0.23664,0.22918 -0.53114,0.51438 -1.10016,0.51438c-0.56906,0 -0.8636,-0.2852 -1.10028,-0.51438c-0.20356,-0.19711 -0.33805,-0.32735 -0.63824,-0.32735c-0.30024,0 -0.43469,0.1302 -0.63824,0.32735c-0.23664,0.22918 -0.53121,0.51438 -1.10028,0.51438c-0.18344,0 -0.33211,-0.14867 -0.33211,-0.33211c0,-0.18344 0.14871,-0.33211 0.33211,-0.33211c0.06594,0 0.12356,-0.00664 0.17598,-0.01852l-0.63032,-2.08009c-0.0268,-0.08844 -0.01551,-0.18406 0.03113,-0.26387c0.04664,-0.07981 0.12441,-0.13656 0.21465,-0.1566c0.00984,-0.00215 0.81106,-0.17969 2.0813,-0.42551l-0.21149,-1.26821l-0.33051,0.12414c-0.03844,0.01441 -0.07793,0.02129 -0.11672,0.02129c-0.13441,0 -0.2609,-0.08219 -0.31094,-0.21543c-0.06449,-0.17168 0.02242,-0.36313 0.1941,-0.42766l0.70848,-0.26613c0.00074,-0.00031 0.00156,-0.00043 0.00234,-0.00074c0.00082,-0.00027 0.00156,-0.00066 0.00242,-0.00098c0.22824,-0.0818 5.63342,-1.99802 9.29219,-1.58219c0.0632,0.00719 0.12301,0.03234 0.17231,0.0725l2.45396,1.99915c1.97415,-0.07613 3.7683,0.00164 5.11362,0.32895c0.00012,0.00004 0.00027,0.00008 0.00039,0.00012c0.15793,0.0382 0.31125,0.08051 0.45559,0.1257c0.175,0.0548 0.27246,0.24113 0.21766,0.41617c-0.04445,0.14195 -0.17551,0.23289 -0.3168,0.23289c-0.03289,0 -0.06629,-0.00492 -0.09934,-0.01527c-0.05191,-0.01625 -0.10543,-0.03199 -0.15981,-0.04734l-0.00066,0.00133c-0.00199,0.00402 -0.00406,0.00797 -0.00629,0.01191c-0.04254,0.07703 -0.98457,1.76591 -2.32618,2.97716zM27.20694,21.51528l-1.80657,-1.47176c-0.972,-0.09762 -2.19079,-0.02926 -3.59267,0.19789c0.16445,0.37922 0.40004,0.99852 0.57356,1.76723c1.607,-0.21793 3.25701,-0.39703 4.82568,-0.49336z" fill="none" stroke-width="0"></path><path d="M35.88472,22.07918c-0.0056,0.30959 -0.25831,0.55683 -0.5667,0.55683c-0.00347,0 -0.00694,-0.00007 -0.0104,-0.00007l-1.51935,-0.02728c-0.31306,-0.00567 -0.5623,-0.26397 -0.55669,-0.5771c0.0056,-0.30959 0.25831,-0.55683 0.5667,-0.55683c0.00347,0 0.00694,0.00007 0.0104,0.00007l1.51935,0.02728c0.31306,0.00567 0.5623,0.26397 0.55669,0.5771zM40.93965,29.96086c0,0.31319 -0.25384,0.56703 -0.56703,0.56703c-0.51228,0 -0.74184,0.22236 -1.08931,0.55883c-0.40403,0.39136 -0.90677,0.87829 -1.8783,0.87829c-0.97153,0 -1.47427,-0.48693 -1.87837,-0.87822c-0.34747,-0.33654 -0.57704,-0.55889 -1.08944,-0.55889c-0.51234,0 -0.74184,0.22229 -1.08938,0.55889c-0.40403,0.39129 -0.90684,0.87822 -1.87837,0.87822c-0.48887,0 -0.91351,-0.12565 -1.29826,-0.38416c-0.25997,-0.17467 -0.32907,-0.52695 -0.15446,-0.78685c0.17467,-0.25991 0.52695,-0.329 0.78685,-0.15446c0.13265,0.0891 0.32827,0.19141 0.66587,0.19141c0.51234,0 0.74184,-0.22229 1.08938,-0.55889c0.40403,-0.39129 0.90684,-0.87822 1.87837,-0.87822c0.97153,0 1.47433,0.487 1.87843,0.87829c0.34754,0.33647 0.57704,0.55883 1.08938,0.55883c0.51228,0 0.74184,-0.22236 1.08931,-0.55883c0.40403,-0.39136 0.90677,-0.87829 1.8783,-0.87829c0.31319,0 0.56696,0.25384 0.56703,0.56703zM29.69653,30.29253c-0.11658,0.29065 -0.44692,0.43178 -0.7373,0.3152c-0.13392,-0.05369 -0.28365,-0.07983 -0.45752,-0.07983c-0.51228,0 -0.74177,0.22236 -1.08924,0.55883c-0.40403,0.39136 -0.9067,0.87829 -1.87817,0.87829c-0.97153,0 -1.47427,-0.48693 -1.87837,-0.87822c-0.34747,-0.33654 -0.57704,-0.55889 -1.08944,-0.55889c-0.51241,0 -0.74197,0.22229 -1.08944,0.55889c-0.4041,0.39129 -0.90684,0.87822 -1.87837,0.87822c-0.97153,0 -1.47433,-0.48693 -1.87843,-0.87822c-0.34747,-0.33654 -0.57704,-0.55889 -1.08944,-0.55889c-0.51248,0 -0.74204,0.22229 -1.08951,0.55889c-0.40403,0.39129 -0.90684,0.87822 -1.87837,0.87822c-0.9716,0 -1.47447,-0.48693 -1.87857,-0.87822c-0.34754,-0.33654 -0.57717,-0.55889 -1.08971,-0.55889c-0.51261,0 -0.74217,0.22229 -1.08971,0.55889c-0.40403,0.39129 -0.90697,0.87822 -1.87857,0.87822c-0.31319,0 -0.56703,-0.25384 -0.56703,-0.56703c0,-0.31319 0.2539,-0.56703 0.56703,-0.56703c0.51248,0 0.74217,-0.22229 1.08971,-0.55889c0.4041,-0.39129 0.9069,-0.87822 1.8785,-0.87822c0.9716,0 1.47447,0.48693 1.87857,0.87822c0.34754,0.33654 0.57724,0.55889 1.08971,0.55889c0.51241,0 0.74197,-0.22229 1.08944,-0.55889c0.4041,-0.39129 0.9069,-0.87822 1.87843,-0.87822c0.97153,0 1.47433,0.48693 1.87843,0.87822c0.34754,0.33654 0.57717,0.55889 1.08958,0.55889c0.51234,0 0.7419,-0.22236 1.08938,-0.55883c0.40403,-0.39136 0.9069,-0.87829 1.87837,-0.87829c0.97146,0 1.47427,0.487 1.87837,0.87829c0.34754,0.33647 0.57704,0.55883 1.08938,0.55883c0.51221,0 0.7417,-0.22236 1.08918,-0.55883c0.40403,-0.39129 0.90677,-0.87829 1.87823,-0.87829c0.32126,0 0.60898,0.05275 0.87969,0.16133c0.29065,0.11658 0.43171,0.44672 0.3152,0.73737zM36.08067,26.55614c0.08317,0.07476 0.16087,0.14993 0.2351,0.22182c0.34754,0.33647 0.57704,0.55883 1.08938,0.55883c0.51228,0 0.74184,-0.22236 1.08931,-0.55883c0.40403,-0.39136 0.90677,-0.87829 1.8783,-0.87829c0.31326,0 0.56703,0.25384 0.56703,0.56703c0,0.31319 -0.25384,0.56703 -0.56703,0.56703c-0.51228,0 -0.74184,0.22236 -1.08931,0.55883c-0.40403,0.39136 -0.90677,0.87829 -1.8783,0.87829c-0.97153,0 -1.47427,-0.48693 -1.87837,-0.87822c-0.34754,-0.33654 -0.5771,-0.55889 -1.08951,-0.55889c-0.51234,0 -0.74184,0.22236 -1.08938,0.55883c-0.40403,0.39136 -0.90684,0.87829 -1.87837,0.87829c-0.97153,0 -1.47433,-0.487 -1.87837,-0.87829c-0.34754,-0.33647 -0.57704,-0.55883 -1.08938,-0.55883c-0.51228,0 -0.74177,0.22236 -1.08924,0.55883c-0.40403,0.39136 -0.9067,0.87829 -1.87817,0.87829c-0.97153,0 -1.47433,-0.48693 -1.87837,-0.87822c-0.34747,-0.33654 -0.57704,-0.55889 -1.08944,-0.55889c-0.51241,0 -0.74197,0.22229 -1.08944,0.55889c-0.4041,0.39129 -0.90684,0.87822 -1.87837,0.87822c-0.88276,0 -1.37663,-0.3995 -1.77019,-0.77405c-0.22689,-0.21582 -0.2357,-0.57477 -0.01987,-0.80159c0.21589,-0.22689 0.57477,-0.2357 0.80159,-0.01987c0.28405,0.27018 0.52121,0.46152 0.98847,0.46152c0.51234,0 0.7419,-0.22236 1.08938,-0.55883c0.40403,-0.39136 0.9069,-0.87829 1.87837,-0.87829c0.97146,0 1.47427,0.487 1.87837,0.87829c0.34754,0.33647 0.57704,0.55883 1.08938,0.55883c0.51221,0 0.7417,-0.22236 1.08918,-0.55883c0.40403,-0.39129 0.90677,-0.87829 1.87823,-0.87829c0.97153,0 1.47433,0.487 1.87837,0.87829c0.34754,0.33647 0.57704,0.55883 1.08938,0.55883c0.51234,0 0.74184,-0.22236 1.08938,-0.55883c0.40403,-0.39136 0.90684,-0.87829 1.87837,-0.87829c0.22016,0 0.41517,0.02594 0.59144,0.06916c1.91185,-1.61472 3.41572,-4.0031 3.88125,-4.78588c-3.0325,-0.5651 -9.84314,-0.91824 -24.13563,1.57151c-0.30886,0.05336 -0.60225,-0.1528 -0.65593,-0.46132c-0.05376,-0.30853 0.1528,-0.60218 0.46132,-0.65593c1.74191,-0.30346 3.61007,-0.60551 5.52925,-0.87996c-0.31846,-1.36882 -0.76071,-2.43973 -1.00421,-2.97154c-0.79319,0.15079 -1.61633,0.32867 -2.46614,0.53375c-2.28213,0.55076 -4.16716,1.15514 -4.9915,1.43172l0.39116,2.34576c0.18988,-0.03561 0.38402,-0.0717 0.58237,-0.10831c0.30773,-0.05689 0.60371,0.14673 0.66047,0.45472c0.05676,0.30793 -0.14679,0.60371 -0.45472,0.66047c-2.132,0.39329 -3.77967,0.7335 -4.61175,0.91004l0.78479,2.58992c0.37669,-0.34794 0.86442,-0.70415 1.69542,-0.70415c0.9716,0 1.47447,0.48693 1.87857,0.87822c0.34754,0.33654 0.57724,0.55889 1.08971,0.55889c0.51241,0 0.74197,-0.22229 1.08944,-0.55889c0.4041,-0.39129 0.9069,-0.87822 1.87843,-0.87822c0.31319,0 0.56703,0.25384 0.56703,0.56703c0,0.31319 -0.2539,0.56703 -0.56703,0.56703c-0.51241,0 -0.74197,0.22229 -1.08944,0.55889c-0.40403,0.39129 -0.90684,0.87822 -1.87837,0.87822c-0.9716,0 -1.47447,-0.48693 -1.87857,-0.87822c-0.34754,-0.33654 -0.57717,-0.55889 -1.08971,-0.55889c-0.51261,0 -0.74217,0.22229 -1.08971,0.55889c-0.40403,0.39129 -0.90697,0.87822 -1.87857,0.87822c-0.31319,0 -0.56703,-0.25384 -0.56703,-0.56703c0,-0.31319 0.2539,-0.56703 0.56703,-0.56703c0.11258,0 0.21095,-0.01134 0.30046,-0.03161l-1.07617,-3.55145c-0.04575,-0.15099 -0.02648,-0.31426 0.05315,-0.45052c0.07963,-0.13626 0.21242,-0.23316 0.36648,-0.26738c0.01681,-0.00367 1.38476,-0.30679 3.55351,-0.7265l-0.36108,-2.16528l-0.5643,0.21195c-0.06563,0.02461 -0.13305,0.03635 -0.19928,0.03635c-0.22949,0 -0.44545,-0.14032 -0.53088,-0.36782c-0.11011,-0.29312 0.03828,-0.61999 0.3314,-0.73016l1.20963,-0.45439c0.00127,-0.00053 0.00267,-0.00073 0.004,-0.00127c0.0014,-0.00047 0.00267,-0.00113 0.00414,-0.00167c0.38969,-0.13966 9.61825,-3.41132 15.86506,-2.70137c0.10791,0.01227 0.21002,0.05522 0.29419,0.12378l4.18977,3.41326c3.37057,-0.12999 6.43382,0.0028 8.73076,0.56163c0.0002,0.00007 0.00047,0.00013 0.00067,0.0002c0.26964,0.06523 0.53142,0.13746 0.77785,0.21462c0.29879,0.09357 0.46519,0.4117 0.37162,0.71056c-0.0759,0.24237 -0.29966,0.39763 -0.54089,0.39763c-0.05616,0 -0.11318,-0.0084 -0.1696,-0.02608c-0.08864,-0.02774 -0.18001,-0.05462 -0.27284,-0.08083l-0.00113,0.00227c-0.0034,0.00687 -0.00694,0.01361 -0.01074,0.02034c-0.07263,0.13152 -1.68102,3.01503 -3.97162,5.08307zM29.47538,19.7577l-3.08446,-2.51282c-1.65954,-0.16667 -3.74046,-0.04995 -6.13397,0.33787c0.28078,0.64746 0.68301,1.70483 0.97927,3.0173c2.74372,-0.37208 5.56087,-0.67788 8.23916,-0.84234z" fill="#ffffff" stroke-width="0"></path><path d="M2,24c0,-12.15026 9.84974,-22 22,-22c12.15026,0 22,9.84974 22,22c0,12.15026 -9.84974,22 -22,22c-12.15026,0 -22,-9.84974 -22,-22z" id="base 1 5 1" fill="none" stroke-width="1"></path><path d="M2,24c0,-12.15026 9.84974,-22 22,-22c12.15026,0 22,9.84974 22,22c0,12.15026 -9.84974,22 -22,22c-12.15026,0 -22,-9.84974 -22,-22z" id="base 1 1 1" fill="none" stroke-width="1"></path><g id="Layer_1 1 1" fill="#000000" stroke-width="1" font-family="Roboto, sans-serif" font-weight="normal" font-size="14" text-anchor="start"><g><g></g></g><g><g></g></g><g><g></g></g><g><g></g></g><g></g><g></g><g></g><g></g><g></g><g></g><g></g><g></g><g></g><g></g><g></g><g></g><g></g><g></g><g></g></g><rect x="2" y="2" width="44" height="22" fill="none" stroke-width="1"></rect><path d="M2,24v-22h44v22z" fill="none" stroke-width="1"></path><path d="M2,24v-22h44v22z" fill="none" stroke-width="1"></path><path d="M2,24v-22h44v22z" fill="none" stroke-width="1"></path><path d="M2,24v-22h44v22z" fill="none" stroke-width="1"></path><g id="Layer_1 2 1" fill="#000000" stroke-width="1" font-family="Roboto, sans-serif" font-weight="normal" font-size="14" text-anchor="start"><g><g></g></g><g><g></g></g><g><g></g></g><g><g></g></g><g></g><g></g><g></g><g></g><g></g><g></g><g></g><g></g><g></g><g></g><g></g><g></g><g></g><g></g><g></g></g><rect x="2" y="2" width="44" height="22" fill="none" stroke-width="1"></rect><path d="M2,24v-22h44v22z" fill="none" stroke-width="1"></path><path d="M2,24v-22h44v22z" fill="none" stroke-width="1"></path><path d="M2,24v-22h44v22z" fill="none" stroke-width="1"></path><path d="M2,24v-22h44v22z" fill="none" stroke-width="1"></path></g></g></svg>